<?xml version="1.0" standalone="no"?>
<!DOCTYPE svg PUBLIC "-//W3C//DTD SVG 20010904//EN"
 "http://www.w3.org/TR/2001/REC-SVG-20010904/DTD/svg10.dtd">
<svg version="1.0" xmlns="http://www.w3.org/2000/svg"
 width="700.000000pt" height="700.000000pt" viewBox="0 0 700.000000 700.000000"
 preserveAspectRatio="xMidYMid meet">
<metadata>
Created by potrace 1.14, written by Peter Selinger 2001-2017
</metadata>
<g transform="translate(0.000000,700.000000) scale(0.100000,-0.100000)"
fill="#000000" stroke="none">
<path d="M3785 6782 c-53 -5 -138 -33 -195 -63 -138 -74 -256 -241 -284 -399
-2 -14 -16 -72 -30 -130 -21 -87 -148 -631 -161 -694 -7 -31 -59 -255 -205
-886 -78 -333 -146 -629 -152 -658 -6 -29 -12 -51 -14 -49 -3 2 -35 109 -73
238 -292 988 -587 1976 -607 2038 -60 179 -197 300 -379 334 -88 17 -151 13
-239 -14 -149 -45 -261 -159 -307 -311 -37 -122 -18 -230 111 -633 l10 -30
-22 30 c-62 83 -172 160 -268 185 -66 18 -177 16 -238 -4 -167 -56 -279 -202
-287 -375 -4 -87 4 -119 104 -458 85 -286 106 -357 171 -578 22 -77 52 -176
65 -220 14 -44 54 -181 91 -305 36 -124 79 -270 96 -325 57 -191 57 -192 48
-258 -5 -34 -12 -98 -15 -142 -4 -44 -9 -87 -10 -96 -19 -100 -27 -851 -12
-1014 4 -44 10 -105 13 -135 5 -54 17 -146 29 -225 4 -22 16 -78 27 -125 11
-47 21 -94 24 -105 2 -11 18 -63 35 -115 115 -354 356 -616 738 -805 238 -118
503 -193 786 -223 91 -9 398 -9 495 0 658 66 1225 386 1594 900 97 135 177
275 241 418 113 256 244 458 442 681 17 19 52 59 79 90 27 30 76 87 110 125
34 38 110 128 169 199 60 72 221 244 359 383 138 140 256 259 261 265 124 146
187 280 180 387 -8 113 -89 237 -194 293 -111 61 -281 67 -436 15 -219 -73
-464 -246 -670 -474 -128 -142 -330 -343 -399 -398 -101 -80 -204 -131 -326
-162 -95 -23 -92 -38 -39 189 26 111 117 506 203 877 87 371 170 731 186 800
212 901 213 904 184 1015 -23 87 -59 152 -118 211 -196 195 -497 154 -659 -91
-24 -36 -37 -50 -33 -35 38 154 58 267 59 330 1 217 -120 411 -311 496 -52 24
-168 42 -227 36z"/>
</g>
</svg>
