<svg version="1.0" viewBox="0 0 150 150" class="prefix__blur-none prefix__hover:blur-[1px] prefix__hover:opacity-85 prefix__hover:scale-120 prefix__active:scale-110 prefix__transition-all prefix__ease-in-out prefix__duration-300" xmlns="http://www.w3.org/2000/svg"><rect width="150" height="150" ry="40.88"/><g transform="matrix(.10144 0 0 -.10264 -2.16 149.86)" fill="#fff"><path class="prefix__path1" d="M633 1438c-45-34-81-80-96-124-8-25-18-38-28-36-60 15-83 13-129-8-63-29-73-56-34-87l29-23h-33c-44 0-85-40-80-78 2-21 11-30 37-38 27-9 31-13 20-20-49-29-67-118-27-133 25-9 68-3 68 10 0 5-13 9-30 9-27 0-30 3-30 30 0 41 31 70 75 70 19 0 35 4 35 10 0 15-41 38-82 45-27 5-38 12-38 25 0 33 26 43 90 36 76-9 80 8 15 56-24 18-44 36-45 39 0 10 71 39 98 39 15 0 44-11 65-25 31-22 38-23 43-11 3 8 3 20-1 25-9 16 15 85 41 117l23 29 1-35c0-37 23-80 42-80 6 0 29 19 50 42l40 43 31-37c18-20 40-47 49-60l18-23 28 33c16 17 33 32 38 32 19 0 52-45 56-75 4-37 22-39 26-3 2 15 17 38 33 53 38 31 54 32 44 3-15-45-17-108-5-123 10-13 16-13 41 0 66 34 81-1 24-54-34-30-35-35-33-92 1-33 6-63 10-65 14-9 27 33 19 62-10 37-5 52 29 81s44 71 22 96c-16 17-33 18-77 1-15-6-17-2-12 32 3 21 9 51 12 66 6 23 3 29-19 39-22 11-29 9-49-8-38-35-46-35-78-9-39 33-62 33-89-1-14-18-23-24-26-16-3 7-24 36-47 63l-42 50-45-50c-25-28-49-48-53-44-17 17-6 71 18 94 50 47 16 70-42 28"/><path class="prefix__path2" d="M685 1168c-49-17-123-77-156-124-47-68-61-111-68-208l-6-88-24 19c-23 19-23 20-7 51 23 45 20 60-8 32-38-40-41-66-11-96 17-17 33-24 46-21 15 4 19 0 19-18 0-13 9-52 20-87 11-34 20-64 20-66 0-1-17 9-37 23-72 49-89 18-20-37 50-41 90-63 133-72 34-8 44-26 44-83 0-27-7-37-39-57-62-39-79-40-171-7-101 37-144 65-227 144-51 49-60 63-53 78 16 28 12 65-10 90-18 22-21 23-33 8-7-9-20-18-30-20-26-6-26-23 0-27s47-27 38-42c-10-16-45-12-45 6 0 25-35 12-38-14-5-36 16-55 57-48 30 5 40 0 78-34 47-44 48-55 1-15-33 28-48 32-48 13 0-7 22-29 47-48 26-19 58-47 72-62 33-34 155-99 205-108 63-12 187 24 171 50-3 5-1 11 5 15 13 8 10 18 20-105C646 14 649 0 676 0c21 0 24 5 25 43 4 103-3 182-17 193-9 7-17 48-23 120-5 60-9 110-7 111 1 1 19-2 40-8 39-11 134-8 172 5 32 11 58-66 100-301 5-27 34-31 34-6 0 43 21-9 32-80 15-100 37-106 27-8-8 72-38 167-83 258-36 72-34 83 11 83 34 0 35-1 17-14-10-8-16-17-13-21 9-8 154 22 184 38 36 19 113 120 228 299 11 15 27 28 36 28s27 9 39 20c18 17 22 32 22 80 0 52-3 61-27 80-20 15-29 18-37 9-8-8-7-13 2-16 37-14 54-70 36-118-10-25-48-36-84-24-24 9-33 20-44 57-7 26-17 46-22 44-13-4-5-63 12-89 8-12 14-26 14-31s-23-43-51-86c-94-141-238-242-327-229-69 9-72 36-12 98 61 63 85 110 106 203 30 133 7 250-67 342-43 53-72 71-144 86-72 16-129 16-170 2m221-44c42-20 96-83 123-145 20-42 29-140 14-138-21 3-33-2-33-15 0-10 7-12 22-8 20 5 21 3 15-40-17-126-100-245-198-288-48-20-57-21-118-10-36 7-75 18-86 23-11 6-25 10-31 9s-18 8-27 21c-22 34-75 166-86 215-9 41-8 44 10 39 10-3 21-2 24 3 7 11-22 33-35 25-19-12-10 79 14 137 34 84 78 133 149 168 57 28 68 30 135 25 41-2 89-12 108-21m444-444c-12-16-24-30-26-30-7 0 5 20 24 43 24 27 25 20 2-13m-86-127c-51-79-89-114-142-129-30-9-55-14-58-11-2 2 24 21 60 42 35 20 83 57 107 81 50 51 59 55 33 17M341 333c36-18 78-35 93-39 39-10 45-28 6-19-32 7-180 82-180 92 0 2 3 3 8 1 4-2 37-18 73-35"/><path class="prefix__path3" d="M700 893c-8-3-19-12-23-19-4-8-18-14-31-14s-29-6-35-14c-19-22-25-84-11-101 18-22 111-20 140 3 21 17 22 23 14 82-9 65-19 77-54 63m30-78c0-50-2-52-58-61-48-7-60 7-46 54l8 27 4-28c5-39 38-33 35 6-1 21 3 27 18 27 11 0 19 7 19 16 0 8 5 12 10 9 6-3 10-26 10-50"/><path class="prefix__path4" d="M851 882c-63-17-98-45-75-60 5-4 16-22 24-40 27-68 96-79 160-26 40 34 40 75 1 115-34 33-27 33-110 11m93-28c9-8 16-28 16-43 0-23-7-31-39-45-53-24-72-18-98 31l-22 42 32 10c77 24 92 24 111 5"/><path class="prefix__path5" d="M865 800c-4-6 5-10 19-10s26 5 26 10c0 6-9 10-19 10-11 0-23-4-26-10"/><path class="prefix__path6" d="M779 681c-27-22-65-88-56-97 10-10 33 13 47 47 9 21 22 32 41 36 32 6 40 33 10 33-10 0-29-9-42-19"/><path class="prefix__path7" d="M1140 892c0-4 6-16 14-27 18-26 4-62-29-75-30-11-33-30-5-30 54 0 91 88 52 123-20 18-32 22-32 9"/></g></svg>