<svg version="1.0" viewBox="0 0 500 500" xmlns="http://www.w3.org/2000/svg"><path fill="#161616" d="M0 0h500v500H0z"/><path d="M303.3 67.2 303 95l-27.7.3-27.8.2v15h56v55h15v-55h55v-15h-55l-.2-27.8L318 40l-7.2-.3-7.3-.3zm-176.8 63.3v35h15v-55h56v-15h-71zm.7 84.7c-.4.3-.7 28.7-.7 63v62.3h15v-55h56v-15l-27.7-.2-27.8-.3-.3-27.8-.2-27.7h-6.8c-3.8 0-7.2.3-7.5.7M247.5 278v7.5h56v55h15v-70h-71zM127 390.8c-.3.6-.4 16.5-.3 35.2l.3 34 35.3.3 35.2.2v-15l-27.7-.2-27.8-.3-.3-27.8-.2-27.7h-7q-7.1 0-7.5 1.3m176.3 26.4L303 445l-27.7.3-27.8.2v15h71l-.2-35.3-.3-35.2-7.2-.3-7.3-.3z" fill="#f2f4f8"/></svg>